<?xml version="1.0" encoding="UTF-8" standalone="no"?>
<svg
   xmlns:dc="http://purl.org/dc/elements/1.1/"
   xmlns:cc="http://creativecommons.org/ns#"
   xmlns:rdf="http://www.w3.org/1999/02/22-rdf-syntax-ns#"
   xmlns:svg="http://www.w3.org/2000/svg"
   xmlns="http://www.w3.org/2000/svg"
   xmlns:sodipodi="http://sodipodi.sourceforge.net/DTD/sodipodi-0.dtd"
   xmlns:inkscape="http://www.inkscape.org/namespaces/inkscape"
   enable-background="new 0 0 500 500"
   height="16"
   id="Layer_1"
   version="1.1"
   viewBox="0 0 16 16"
   width="16"
   xml:space="preserve"
   inkscape:version="0.91 r13725"
   sodipodi:docname="key.svg"><metadata
     id="metadata9"><rdf:RDF><cc:Work
         rdf:about=""><dc:format>image/svg+xml</dc:format><dc:type
           rdf:resource="http://purl.org/dc/dcmitype/StillImage" /><dc:title></dc:title></cc:Work></rdf:RDF></metadata><defs
     id="defs7" /><sodipodi:namedview
     pagecolor="#ffffff"
     bordercolor="#666666"
     borderopacity="1"
     objecttolerance="10"
     gridtolerance="10"
     guidetolerance="10"
     inkscape:pageopacity="0"
     inkscape:pageshadow="2"
     inkscape:window-width="1280"
     inkscape:window-height="1000"
     id="namedview5"
     showgrid="false"
     inkscape:zoom="15.104"
     inkscape:cx="11.870817"
     inkscape:cy="21.234381"
     inkscape:window-x="1280"
     inkscape:window-y="24"
     inkscape:window-maximized="1"
     inkscape:current-layer="Layer_1" /><path
     d="m 0.88726052,12.740097 c -0.51693803,0.51624 -0.51693803,1.35655 0,1.873122 0.51657238,0.516828 1.35677108,0.516828 1.86982108,0 L 3.1304583,14.2434 4.6874378,15.800013 c 0.266247,0.266649 0.6929697,0.266649 0.9595832,0 l 2.3203164,-2.320317 c 0.2666511,-0.266174 0.2666511,-0.693042 0,-0.959657 L 6.4106889,10.963464 9.1838127,8.1868168 c 0.5933966,0.3066041 1.2697833,0.4797002 1.9833343,0.4797002 2.393325,0 4.333296,-1.9396755 4.333296,-4.3332225 C 15.500443,1.9400419 13.560472,0 11.167147,0 8.7736735,0 6.8338883,1.9400419 6.8338883,4.3332945 c 0,0.7135519 0.1732059,1.3899746 0.4797734,1.9833713 L 0.88726052,12.740097 Z M 9.5004693,4.3332945 c 0,-0.9199593 0.7467547,-1.6667137 1.6666407,-1.6667137 0.919997,0 1.666604,0.7467544 1.666604,1.6667137 0,0.9199603 -0.746607,1.6666041 -1.666604,1.6666041 -0.91985,0 -1.6666407,-0.7466803 -1.6666407,-1.6666041 z"
     id="path3"
     inkscape:connector-curvature="0"
     style="clip-rule:nonzero;fill:#999999;fill-rule:nonzero;color:#000000;display:inline;overflow:visible;visibility:visible;opacity:1;isolation:auto;mix-blend-mode:normal;color-interpolation:sRGB;color-interpolation-filters:linearRGB;solid-color:#000000;solid-opacity:1;fill-opacity:1;stroke-width:1;stroke-linecap:butt;stroke-linejoin:miter;stroke-miterlimit:4;stroke-dasharray:none;stroke-dashoffset:0;stroke-opacity:1;filter-blend-mode:normal;filter-gaussianBlur-deviation:0;color-rendering:auto;image-rendering:auto;shape-rendering:auto;text-rendering:auto;enable-background:accumulate" /></svg>